HIERARCHY
ROOT Pelvis
{
	OFFSET 0.000000 0.000000 0.000000
	CHANNELS 6 Xposition Yposition Zposition Xrotation Yrotation Zrotation
	JOINT LeftUpLeg_virtual
	{
		OFFSET 0.000000 0.000000 0.000000
		CHANNELS 3 Xrotation Yrotation Zrotation
		JOINT LeftUpLeg
		{
			OFFSET 18.735201 -5.666702 -4.541200
			CHANNELS 3 Xrotation Yrotation Zrotation
			JOINT LeftLeg
			{
				OFFSET -0.021200 -31.938179 0.493100
				CHANNELS 3 Xrotation Yrotation Zrotation
				JOINT LeftFoot
				{
					OFFSET 0.021200 -31.938179 -4.336299
					CHANNELS 3 Xrotation Yrotation Zrotation
					JOINT LeftToeBase
					{
						OFFSET 0.943001 -26.722000 15.023500
						CHANNELS 3 Xrotation Yrotation Zrotation
						End Site
						{
							OFFSET 0 0 0
						}
					}
				}
			}
		}
	}
	JOINT RightUpLeg_virtual
	{
		OFFSET 0.000000 0.000000 0.000000
		CHANNELS 3 Xrotation Yrotation Zrotation
		JOINT RightUpLeg
		{
			OFFSET -18.735201 -5.666702 -4.541200
			CHANNELS 3 Xrotation Yrotation Zrotation
			JOINT RightLeg
			{
				OFFSET 0.018946 -31.938133 0.493100
				CHANNELS 3 Xrotation Yrotation Zrotation
				JOINT RightFoot
				{
					OFFSET -0.018946 -31.938126 -4.336299
					CHANNELS 3 Xrotation Yrotation Zrotation
					JOINT RightToeBase
					{
						OFFSET -0.943001 -26.722004 15.023500
						CHANNELS 3 Xrotation Yrotation Zrotation
						End Site
						{
							OFFSET 0 0 0
						}
					}
				}
			}
		}
	}
	JOINT Hips_virtual
	{
		OFFSET 0.000000 0.000000 0.000000
		CHANNELS 3 Xrotation Yrotation Zrotation
		JOINT Hips
		{
			OFFSET -0.000000 -0.000000 -0.000000
			CHANNELS 3 Xrotation Yrotation Zrotation
			JOINT Spine
			{
				OFFSET 0.000000 10.199997 -0.299500
				CHANNELS 3 Xrotation Yrotation Zrotation
				JOINT Spine1
				{
					OFFSET 0.000000 11.900002 -1.516600
					CHANNELS 3 Xrotation Yrotation Zrotation
					JOINT Spine2
					{
						OFFSET 0.000000 13.600006 -2.842500
						CHANNELS 3 Xrotation Yrotation Zrotation
						JOINT Neck_virtual
						{
							OFFSET 0.000000 0.000000 0.000000
							CHANNELS 3 Xrotation Yrotation Zrotation
							JOINT Neck
							{
								OFFSET 0.000000 9.624100 -2.890100
								CHANNELS 3 Xrotation Yrotation Zrotation
								JOINT Head
								{
									OFFSET 0.000000 14.068802 -1.351900
									CHANNELS 3 Xrotation Yrotation Zrotation
									End Site
									{
										OFFSET 0 0 0
									}
								}
							}
						}
						JOINT LeftShoulder_virtual
						{
							OFFSET 0.000000 0.000000 0.000000
							CHANNELS 3 Xrotation Yrotation Zrotation
							JOINT LeftShoulder
							{
								OFFSET 15.263000 10.923401 -0.547700
								CHANNELS 3 Xrotation Yrotation Zrotation
								JOINT LeftArm
								{
									OFFSET 25.438599 -2.830597 -13.032500
									CHANNELS 3 Xrotation Yrotation Zrotation
									JOINT LeftForeArm
									{
										OFFSET 29.960503 0.000000 0.000000
										CHANNELS 3 Xrotation Yrotation Zrotation
										JOINT LeftHand
										{
											OFFSET 27.849251 0.000000 0.000000
											CHANNELS 3 Xrotation Yrotation Zrotation
											End Site
											{
												OFFSET 0 0 0
											}
										}
									}
								}
							}
						}
						JOINT RightShoulder_virtual
						{
							OFFSET 0.000000 0.000000 0.000000
							CHANNELS 3 Xrotation Yrotation Zrotation
							JOINT RightShoulder
							{
								OFFSET -15.263000 10.923401 -0.547700
								CHANNELS 3 Xrotation Yrotation Zrotation
								JOINT RightArm
								{
									OFFSET -25.438599 -2.830597 -13.032500
									CHANNELS 3 Xrotation Yrotation Zrotation
									JOINT RightForeArm
									{
										OFFSET -29.960503 0.000000 0.000000
										CHANNELS 3 Xrotation Yrotation Zrotation
										JOINT RightHand
										{
											OFFSET -27.849251 0.000000 0.000000
											CHANNELS 3 Xrotation Yrotation Zrotation
											End Site
											{
												OFFSET 0 0 0
											}
										}
									}
								}
							}
						}
					}
				}
			}
		}
	}
}
MOTION
Frames: 13
Frame Time: 0.03333333
-4.978044 120.652435 10.069456 0.000000 0.000000 0.000000 4.381037 -36.843369 4.933718 -87.651661 -23.980586 26.629461 79.143458 0.521254 7.750814 3.057526 0.154804 -1.408450 0.000000 0.000000 0.000000 4.381037 -36.843369 4.933718 -136.564920 -40.997903 -10.050272 116.466583 17.084362 -14.934350 31.506355 4.477456 33.555053 0.000000 0.000000 0.000000 4.381037 -36.843369 4.933718 0.000000 -0.000004 0.000000 30.156614 -5.555785 -9.624363 12.785625 1.087592 -3.033124 0.000000 0.000000 0.000000 12.733218 1.050410 -3.241309 -1.987828 4.042631 -2.804583 0.000000 0.000000 0.000000 12.733218 1.050410 -3.241309 9.829640 -9.813822 -1.458548 -62.537738 12.081217 3.106152 46.615580 -25.819862 31.530096 0.000000 0.000000 0.000000 12.733218 1.050410 -3.241309 14.990500 20.897819 -4.160217 -28.001525 -11.258133 -3.541417 -45.194566 43.244004 34.197712 0.000000 0.000000 0.000000 
-5.021711 120.680077 10.220270 0.000000 0.000000 0.000000 4.256381 -36.318254 4.727494 -88.053323 -23.575124 25.919178 79.428441 2.358215 8.548133 3.061211 -0.701373 0.211692 0.000000 0.000000 0.000000 4.256381 -36.318254 4.727494 -136.709132 -40.911774 -9.842279 116.475598 16.902212 -14.965182 32.610571 4.703056 34.164770 0.000000 0.000000 0.000000 4.256381 -36.318254 4.727494 0.000000 -0.000002 0.000000 30.158270 -5.664224 -9.600662 12.798051 1.087548 -3.033115 0.000000 0.000000 0.000000 12.745772 1.050443 -3.241319 -2.138937 4.024125 -2.821614 0.000000 0.000000 0.000000 12.745772 1.050443 -3.241319 10.133433 -9.721067 -0.028974 -63.361384 10.080291 4.356422 46.550027 -25.690312 31.376742 0.000000 0.000000 0.000000 12.745772 1.050443 -3.241319 15.618583 20.231674 -5.707899 -29.640132 -12.140668 -3.854864 -46.313785 44.391807 35.807813 0.000000 0.000000 0.000000 
-4.954470 120.688370 10.309330 0.000000 0.000000 0.000000 4.144843 -35.882508 4.483220 -88.251816 -23.716377 25.835802 79.505738 2.060480 8.369398 3.514176 -0.732108 0.614847 0.000000 0.000000 0.000000 4.144843 -35.882508 4.483220 -137.183503 -40.802785 -9.891739 116.759844 16.633285 -14.937724 33.022237 4.809248 34.419758 0.000000 0.000000 0.000000 4.144843 -35.882508 4.483220 0.000000 0.000000 0.000000 30.172265 -5.680691 -9.561833 12.836347 1.087549 -3.033107 0.000000 0.000000 0.000000 12.784351 1.050457 -3.241322 -2.123227 4.018108 -2.813758 0.000000 0.000000 0.000000 12.784351 1.050457 -3.241322 10.430025 -9.904269 1.491886 -64.152579 7.747712 5.238483 46.442438 -25.463691 31.110617 0.000000 0.000000 0.000000 12.784351 1.050457 -3.241322 16.239459 19.506950 -7.293206 -31.353399 -13.054801 -4.253632 -47.590873 45.600798 37.608220 0.000000 0.000000 0.000000 
-4.877270 120.693001 10.385756 0.000000 0.000000 0.000000 4.035134 -35.442835 4.236886 -88.508562 -23.917241 25.784254 79.636044 1.605115 8.115784 4.012474 -0.642190 0.953203 0.000000 0.000000 0.000000 4.035134 -35.442835 4.236886 -137.637287 -40.696750 -9.944105 117.025675 16.367018 -14.910692 33.409986 4.926631 34.681331 0.000000 0.000000 0.000000 4.035134 -35.442835 4.236886 0.000000 0.000004 0.000000 30.195481 -5.703721 -9.513561 12.896405 1.087572 -3.033108 0.000000 0.000000 0.000000 12.844868 1.047242 -3.240663 -2.103701 4.008399 -2.813748 0.000000 0.000000 0.000000 12.844868 1.047242 -3.240663 10.741677 -10.297291 3.065314 -64.952319 5.309789 5.718522 46.310025 -25.181639 30.784127 0.000000 0.000000 0.000000 12.844868 1.047242 -3.240663 16.860648 18.882280 -8.907524 -33.079392 -13.866475 -4.670746 -48.903939 46.741464 39.420546 0.000000 0.000000 0.000000 
-4.784182 120.695427 10.454586 0.000000 0.000000 0.000000 3.925890 -34.994665 3.983972 -88.839307 -24.144449 25.685831 79.766651 1.411739 7.993825 4.579658 -0.823433 1.309693 0.000000 0.000000 0.000000 3.925890 -34.994665 3.983972 -138.057248 -40.589874 -10.005202 117.262573 16.092496 -14.882880 33.814631 5.033996 34.899569 0.000000 0.000000 0.000000 3.925890 -34.994665 3.983972 0.000000 0.000000 0.000000 30.229290 -5.730202 -9.461590 12.974684 1.072765 -3.030060 0.000000 0.000000 0.000000 12.923666 1.030321 -3.237162 -2.081263 4.006310 -2.808440 0.000000 0.000000 0.000000 12.923666 1.030321 -3.237162 11.083771 -10.832089 4.652772 -65.798887 3.000780 5.773097 46.169654 -24.886052 30.443888 0.000000 0.000000 0.000000 12.923666 1.030321 -3.237162 17.482842 18.421205 -10.518591 -34.745797 -14.448034 -5.024513 -50.097016 47.691939 41.032317 0.000000 0.000000 0.000000 
-4.680972 120.694832 10.520262 0.000000 0.000000 0.000000 3.829848 -34.545803 3.746704 -89.222488 -24.364892 25.547447 79.890646 1.438624 7.981663 5.184572 -1.185567 1.693981 0.000000 0.000000 0.000000 3.829848 -34.545803 3.746704 -138.440735 -40.465066 -10.059281 117.484964 15.816439 -14.853800 34.198655 5.132751 35.099126 0.000000 0.000000 0.000000 3.829848 -34.545803 3.746704 0.000000 -0.000001 0.000000 30.273427 -5.759174 -9.411542 13.067684 1.040948 -3.023477 0.000000 0.000000 0.000000 13.017338 1.001595 -3.231240 -2.057799 4.013014 -2.804678 0.000000 0.000000 0.000000 13.017338 1.001595 -3.231240 11.463773 -11.439426 6.216098 -66.711564 1.058993 5.392890 46.042828 -24.618143 30.135867 0.000000 0.000000 0.000000 13.017338 1.001595 -3.231240 18.102778 18.149983 -12.084707 -36.214445 -14.257166 -4.941020 -50.983500 48.344612 42.206027 0.000000 0.000000 0.000000 
-4.613731 120.699303 10.604584 0.000000 0.000000 0.000000 3.759835 -34.212336 3.570149 -89.591694 -24.556856 25.448487 80.080403 1.424512 7.958589 5.680065 -1.411738 1.961510 0.000000 0.000000 0.000000 3.759835 -34.212336 3.570149 -138.837802 -40.384631 -10.078770 117.662194 15.610809 -14.836125 34.665187 5.246988 35.244941 0.000000 0.000000 0.000000 3.759835 -34.212336 3.570149 0.000000 -0.000001 0.000000 30.329520 -5.804025 -9.365393 13.172016 1.009503 -3.016951 0.000000 0.000000 0.000000 13.122250 0.969385 -3.224589 -2.033757 4.023343 -2.798655 0.000000 0.000000 0.000000 13.122250 0.969385 -3.224589 11.880471 -12.049745 7.717226 -67.652539 -0.498954 4.674145 45.960025 -24.440256 29.930224 0.000000 0.000000 0.000000 13.122250 0.969385 -3.224589 18.719400 18.097783 -13.565930 -37.406863 -13.208167 -4.550488 -50.698326 48.132186 41.823909 0.000000 0.000000 0.000000 
-4.572485 120.707649 10.686172 0.000000 0.000000 0.000000 3.690282 -34.051857 3.410972 -89.900268 -24.805649 25.422592 80.282160 1.345998 7.924485 6.183671 -1.558889 1.993775 0.000000 0.000000 0.000000 3.690282 -34.051857 3.410972 -139.245209 -40.370762 -10.123837 117.812922 15.477928 -14.823220 35.087884 5.344810 35.293565 0.000000 0.000000 0.000000 3.690282 -34.051857 3.410972 0.000000 0.000001 0.000000 30.408818 -5.849739 -9.326636 13.284837 0.995252 -3.014006 0.000000 0.000000 0.000000 13.235564 0.956146 -3.223621 -2.034826 4.033170 -2.793931 0.000000 0.000000 0.000000 13.235564 0.956146 -3.223621 12.353828 -12.593370 9.110280 -68.560892 -1.806736 3.770004 46.026032 -24.570538 30.070461 0.000000 0.000000 0.000000 13.235564 0.956146 -3.223621 19.260293 18.216809 -14.739541 -38.023096 -11.506325 -3.849213 -49.922816 47.539302 40.782124 0.000000 0.000000 0.000000 
-4.555286 120.716278 10.756510 0.000000 0.000000 0.000000 3.641176 -34.039860 3.304167 -90.166707 -25.096751 25.459390 80.485815 1.215881 7.883514 6.652674 -1.665553 1.805906 0.000000 0.000000 0.000000 3.641176 -34.039860 3.304167 -139.628628 -40.392854 -10.170995 117.927997 15.422750 -14.815216 35.418690 5.420338 35.285157 0.000000 0.000000 0.000000 3.641176 -34.039860 3.304167 0.000000 0.000001 0.000000 30.554564 -5.897073 -9.314238 13.402295 0.990043 -3.012930 0.000000 0.000000 0.000000 13.353494 0.950534 -3.226798 -2.049617 4.044207 -2.785539 0.000000 0.000000 0.000000 13.353494 0.950534 -3.226798 12.792252 -13.019906 10.272917 -69.232710 -2.857453 2.738565 46.213408 -24.946004 30.489408 0.000000 0.000000 0.000000 13.353494 0.950534 -3.226798 19.615685 18.569006 -15.329788 -38.116267 -9.341248 -2.885724 -48.956060 46.760342 39.469952 0.000000 0.000000 0.000000 
-4.563828 120.728310 10.807589 0.000000 0.000000 0.000000 3.613568 -34.135216 3.255024 -90.414677 -25.329412 25.488616 80.716655 1.135048 7.862548 7.000569 -1.672978 1.637177 0.000000 0.000000 0.000000 3.613568 -34.135216 3.255024 -139.939115 -40.448350 -10.195141 117.990398 15.447839 -14.816757 35.657320 5.479706 35.248503 0.000000 0.000000 0.000000 3.613568 -34.135216 3.255024 0.000000 0.000002 0.000000 30.725336 -5.953007 -9.328419 13.521030 0.986387 -3.014540 0.000000 0.000000 0.000000 13.472488 0.947213 -3.230831 -2.065148 4.058507 -2.776849 0.000000 0.000000 0.000000 13.472488 0.947213 -3.230831 13.043050 -13.426821 10.819320 -69.198784 -3.670583 1.596639 46.321663 -25.162847 30.734017 0.000000 0.000000 0.000000 13.472488 0.947213 -3.230831 19.759942 19.142317 -15.326381 -37.810698 -6.834339 -1.680394 -47.667989 45.648063 37.695145 0.000000 0.000000 0.000000 
-4.581330 120.744423 10.829388 0.000000 0.000000 0.000000 3.595289 -34.290053 3.235436 -90.638209 -25.500438 25.508868 80.965971 1.107577 7.862310 7.206508 -1.581478 1.495787 0.000000 0.000000 0.000000 3.595289 -34.290053 3.235436 -140.164224 -40.540130 -10.224803 117.994346 15.470696 -14.825376 35.830940 5.522152 35.132150 0.000000 0.000000 0.000000 3.595289 -34.290053 3.235436 0.000000 0.000001 0.000000 30.877673 -6.011285 -9.353041 13.637907 0.981138 -3.027426 0.000000 0.000000 0.000000 13.589250 0.943411 -3.239482 -2.079184 4.076402 -2.764499 0.000000 0.000000 0.000000 13.589250 0.943411 -3.239482 13.109984 -13.875112 10.787322 -68.423824 -4.351301 0.282606 46.381335 -25.285698 30.874852 0.000000 0.000000 0.000000 13.589250 0.943411 -3.239482 19.745968 19.869261 -14.873697 -37.486458 -4.158263 -0.436894 -46.435478 44.497525 35.967083 0.000000 0.000000 0.000000 
-4.601857 120.755638 10.834076 0.000000 0.000000 0.000000 3.583136 -34.535998 3.234942 -90.812016 -25.707625 25.567567 81.162530 1.102762 7.888434 7.443504 -1.552455 1.195815 0.000000 0.000000 0.000000 3.583136 -34.535998 3.234942 -140.339952 -40.658733 -10.284305 117.972421 15.517561 -14.830719 35.927639 5.536047 34.935837 0.000000 0.000000 0.000000 3.583136 -34.535998 3.234942 0.000000 0.000000 0.000000 31.037336 -6.059775 -9.382726 13.749235 0.977084 -3.041397 0.000000 0.000000 0.000000 13.700256 0.937544 -3.254565 -2.089420 4.092353 -2.759380 0.000000 0.000000 0.000000 13.700256 0.937544 -3.254565 13.007449 -14.362223 10.201171 -67.154857 -4.883944 -0.962528 46.398848 -25.325428 30.922800 0.000000 0.000000 0.000000 13.700256 0.937544 -3.254565 19.604837 20.689403 -14.095671 -37.131538 -1.523711 0.718937 -45.427544 43.482234 34.525913 0.000000 0.000000 0.000000 
-4.613443 120.755005 10.822508 0.000000 0.000000 0.000000 3.573459 -34.805087 3.242700 -90.966952 -25.903170 25.514853 81.231822 2.076211 8.417200 7.659096 -2.521544 0.897213 0.000000 0.000000 0.000000 3.573459 -34.805087 3.242700 -140.360661 -40.767234 -10.337270 117.907671 15.628311 -14.836597 35.908873 5.528905 34.767449 0.000000 0.000000 0.000000 3.573459 -34.805087 3.242700 0.000000 0.000000 0.000000 31.201810 -6.099531 -9.418002 13.851741 0.974050 -3.055287 0.000000 0.000000 0.000000 13.802089 0.931324 -3.270845 -2.100018 4.101459 -2.764033 0.000000 0.000000 0.000000 13.802089 0.931324 -3.270845 12.769032 -14.879405 9.233370 -66.024672 -5.275225 -2.069204 46.325956 -25.185346 30.767718 0.000000 0.000000 0.000000 13.802089 0.931324 -3.270845 19.383127 21.524115 -13.186591 -36.635837 0.840279 1.644885 -44.448511 42.430583 33.104096 0.000000 0.000000 0.000000 
